HIERARCHY
ROOT Pelvis
{
	OFFSET -0.217368 -24.078917 2.858379
	CHANNELS 6 Xposition Yposition Zposition Zrotation Yrotation Xrotation 
	JOINT Left_hip
	{
		OFFSET 5.858135 -8.228005 -1.766408
		CHANNELS 3 Zrotation Yrotation Xrotation
		JOINT Left_knee
		{
			OFFSET 4.345143 -38.646942 0.803700
			CHANNELS 3 Zrotation Yrotation Xrotation
			JOINT Left_ankle
			{
				OFFSET -1.479033 -42.687447 -3.742800
				CHANNELS 3 Zrotation Yrotation Xrotation
				JOINT Left_foot
				{
					OFFSET 4.105436 -6.028605 12.204244
					CHANNELS 3 Zrotation Yrotation Xrotation
					End Site
					{
						OFFSET 0.000000 0.000000 0.000000
					}
				}
			}
		}
	}
	JOINT Right_hip
	{
		OFFSET -6.030973 -9.051328 -1.354253
		CHANNELS 3 Zrotation Yrotation Xrotation
		JOINT Right_knee
		{
			OFFSET -4.325663 -38.368790 -0.484304
			CHANNELS 3 Zrotation Yrotation Xrotation
			JOINT Right_ankle
			{
				OFFSET 1.905555 -42.004566 -3.456167
				CHANNELS 3 Zrotation Yrotation Xrotation
				JOINT Right_foot
				{
					OFFSET -3.483987 -6.210554 13.032330
					CHANNELS 3 Zrotation Yrotation Xrotation
					End Site
					{
						OFFSET 0.000000 0.000000 0.000000
					}
				}
			}
		}
	}
	JOINT Spine1
	{
		OFFSET 0.443945 12.440353 -3.838522
		CHANNELS 3 Zrotation Yrotation Xrotation
		JOINT Spine2
		{
			OFFSET 0.448844 13.795640 2.682033
			CHANNELS 3 Zrotation Yrotation Xrotation
			JOINT Spine3
			{
				OFFSET -0.226460 5.603239 0.285504
				CHANNELS 3 Zrotation Yrotation Xrotation
				JOINT Neck
				{
					OFFSET -1.339018 21.163553 -3.346758
					CHANNELS 3 Zrotation Yrotation Xrotation
					JOINT Head
					{
						OFFSET 1.011321 8.893734 5.040987
						CHANNELS 3 Zrotation Yrotation Xrotation
						End Site
						{
							OFFSET 0.000000 0.000000 0.000000
						}
					}
				}
				JOINT Left_collar
				{
					OFFSET 7.170247 11.399971 -1.889817
					CHANNELS 3 Zrotation Yrotation Xrotation
					JOINT Left_shoulder
					{
						OFFSET 12.292140 4.520507 -1.904600
						CHANNELS 3 Zrotation Yrotation Xrotation
						JOINT Left_elbow
						{
							OFFSET 25.533188 -1.564902 -2.294648
							CHANNELS 3 Zrotation Yrotation Xrotation
							JOINT Left_wrist
							{
								OFFSET 26.570929 1.269810 -0.737473
								CHANNELS 3 Zrotation Yrotation Xrotation
								JOINT Left_palm
								{
									OFFSET 8.669054 -1.063602 -1.559429
									CHANNELS 3 Zrotation Yrotation Xrotation
									End Site
									{
										OFFSET 0.000000 0.000000 0.000000
									}
								}
							}
						}
					}
				}
				JOINT Right_collar
				{
					OFFSET -8.295364 11.247234 -2.370738
					CHANNELS 3 Zrotation Yrotation Xrotation
					JOINT Right_shoulder
					{
						OFFSET -11.322830 4.685326 -0.847207
						CHANNELS 3 Zrotation Yrotation Xrotation
						JOINT Right_elbow
						{
							OFFSET -26.012751 -1.436928 -3.126872
							CHANNELS 3 Zrotation Yrotation Xrotation
							JOINT Right_wrist
							{
								OFFSET -26.910841 0.679372 -0.602677
								CHANNELS 3 Zrotation Yrotation Xrotation
								JOINT Right_palm
								{
									OFFSET -8.875370 -0.865157 -1.010708
									CHANNELS 3 Zrotation Yrotation Xrotation
									End Site
									{
										OFFSET 0.000000 0.000000 0.000000
									}
								}
							}
						}
					}
				}
			}
		}
	}
}
MOTION
Frames: 11
Frame Time: 0.016667
23.254654 68.419418 18.919590 -6.075736 -51.325884 0.397555 9.308535 -0.073722 3.760982 -8.589031 1.501415 13.173276 9.043812 18.392147 -2.712748 0.000000 0.000000 0.000000 -9.739947 0.487681 -17.740008 6.302138 -1.015372 21.053350 0.510251 -4.198306 12.487459 0.000000 0.000000 0.000000 2.602991 -1.031851 15.807191 -0.297089 0.233069 -3.647485 -7.112262 2.521861 14.171902 15.092088 -9.762061 -8.198611 0.000000 0.000000 0.000000 -29.913022 -15.999277 7.467336 -30.499271 -4.314313 -2.323173 -10.576515 -27.128997 3.521250 0.000000 0.000000 0.000000 0.000000 0.000000 0.000000 36.134384 9.118317 2.880708 37.924005 9.189731 -0.632534 6.535120 37.160523 3.261436 0.000000 0.000000 0.000000 0.000000 0.000000 0.000000 
23.145872 68.462990 18.967066 -5.814714 -50.733785 -0.170147 9.300361 -0.061510 4.943738 -8.461187 1.434863 12.286078 8.862451 17.983704 -3.281031 0.000000 0.000000 0.000000 -10.059896 0.450118 -18.139551 6.061899 -0.942433 20.958481 0.834522 -3.907569 13.408589 0.000000 0.000000 0.000000 1.941010 -0.934007 15.805395 0.747428 -0.306688 -1.444807 -7.276381 1.520119 12.092202 14.370525 -9.467084 -7.389748 0.000000 0.000000 0.000000 -30.790799 -15.263414 7.020178 -30.129802 -2.709425 -2.642638 -9.756667 -28.311139 3.477311 0.000000 0.000000 0.000000 0.000000 0.000000 0.000000 36.224378 9.258295 2.986861 38.374869 6.980781 -1.280998 5.513001 37.746578 2.988065 0.000000 0.000000 0.000000 0.000000 0.000000 0.000000 
22.610212 68.361832 18.916229 -6.163120 -50.275794 -0.368720 9.688924 -0.075118 6.121184 -8.626502 1.463309 12.103280 8.974660 18.216828 -3.336212 0.000000 0.000000 0.000000 -9.580271 0.514124 -18.061401 5.499430 -0.768749 20.252598 1.404922 -3.079079 14.059278 0.000000 0.000000 0.000000 1.755819 -0.888884 15.494407 1.584110 -0.743386 -0.387591 -7.002090 0.754200 10.897355 13.048907 -8.792445 -6.322726 0.000000 0.000000 0.000000 -30.965392 -14.610549 6.574800 -30.700945 -2.299727 -2.782050 -8.801448 -28.317185 3.238358 0.000000 0.000000 0.000000 0.000000 0.000000 0.000000 35.102493 9.473754 3.155090 39.617785 5.433052 -1.781602 4.921985 37.679535 2.790965 0.000000 0.000000 0.000000 0.000000 0.000000 0.000000 
21.677259 68.180511 18.777042 -6.390864 -49.729103 -0.056065 11.068286 -0.167097 6.443796 -9.411652 1.604020 11.492648 9.660382 19.663631 -2.762493 0.000000 0.000000 0.000000 -8.707990 0.633519 -18.112701 5.534958 -0.767268 19.054724 1.650947 -2.727735 14.339321 0.000000 0.000000 0.000000 2.144967 -0.910819 14.926865 2.346962 -1.144356 0.310905 -7.143956 0.301049 10.212212 13.444227 -8.877433 -7.123133 0.000000 0.000000 0.000000 -30.668791 -14.113309 6.211532 -31.639783 -2.229158 -2.882798 -7.747016 -29.908000 3.151263 0.000000 0.000000 0.000000 0.000000 0.000000 0.000000 34.604926 9.038747 2.834102 39.015121 4.058865 -2.164692 5.417670 38.238987 3.000728 0.000000 0.000000 0.000000 0.000000 0.000000 0.000000 
20.456499 67.831245 18.534752 -5.335511 -48.882069 0.095241 11.684105 -0.202055 5.793268 -9.917490 1.758658 12.339391 9.722989 19.795953 -2.521605 0.000000 0.000000 0.000000 -8.970972 0.615498 -18.923861 5.724804 -0.820216 19.056241 1.246515 -3.156153 13.463117 0.000000 0.000000 0.000000 2.717679 -0.926612 13.947549 2.908516 -1.468854 1.186141 -7.083868 -0.409316 9.288626 12.346452 -8.143846 -6.928771 0.000000 0.000000 0.000000 -31.082782 -14.409486 6.440874 -32.364370 -2.666392 -2.845894 -7.194330 -31.569063 3.182303 0.000000 0.000000 0.000000 0.000000 0.000000 0.000000 34.195920 9.349131 3.066211 37.871879 3.664086 -2.216670 3.510254 39.374859 2.453220 0.000000 0.000000 0.000000 0.000000 0.000000 0.000000 
19.103342 67.442139 18.198788 -4.330057 -48.854527 0.107301 11.993255 -0.218600 5.587633 -10.053509 1.808570 12.689811 10.341447 21.055633 -2.545532 0.000000 0.000000 0.000000 -8.951036 0.643914 -20.081348 6.173373 -0.952598 19.517647 1.315363 -2.448449 11.933471 0.000000 0.000000 0.000000 4.128884 -1.117047 14.014885 3.572763 -1.837897 1.790411 -8.384274 -0.040972 8.402104 13.741630 -9.061100 -7.233182 0.000000 0.000000 0.000000 -30.379012 -15.737563 7.321354 -33.813155 -4.511675 -2.512580 -5.710448 -33.460651 2.943339 0.000000 0.000000 0.000000 0.000000 0.000000 0.000000 33.480223 9.253858 3.000451 37.302969 4.792790 -1.868708 2.239332 40.744066 2.100747 0.000000 0.000000 0.000000 0.000000 0.000000 0.000000 
17.709312 67.252060 17.755779 -2.895934 -48.249124 0.259262 12.242235 -0.219504 4.683863 -10.455265 1.930812 13.221736 10.284569 20.934068 -2.014815 0.000000 0.000000 0.000000 -9.367362 0.615719 -22.016218 6.570581 -1.093490 20.961782 0.433139 -3.612986 10.430779 0.000000 0.000000 0.000000 5.157742 -1.288991 14.428094 4.316758 -2.186898 1.477785 -9.018746 -0.933034 7.895247 13.413963 -8.754104 -7.534196 0.000000 0.000000 0.000000 -28.971638 -17.027874 8.093122 -34.923927 -6.256309 -2.136302 -5.444595 -35.625559 3.063519 0.000000 0.000000 0.000000 0.000000 0.000000 0.000000 31.962926 10.252558 3.715975 36.245697 7.462448 -1.096688 1.022808 41.444598 1.703480 0.000000 0.000000 0.000000 0.000000 0.000000 0.000000 
16.368193 67.088928 17.243876 -1.777380 -49.069199 0.458808 12.626739 -0.221645 3.731640 -10.757225 2.083769 14.541164 10.805301 21.951200 -1.322346 0.000000 0.000000 0.000000 -8.859379 0.735817 -23.458667 6.428106 -1.071294 22.051909 0.039418 -3.991536 9.302266 0.000000 0.000000 0.000000 6.405840 -1.543790 15.290490 4.627553 -2.420179 2.466344 -9.836244 -0.642568 6.072560 13.734695 -9.081439 -7.133074 0.000000 0.000000 0.000000 -28.795268 -18.441708 9.037618 -35.090320 -9.556257 -1.273186 -3.502058 -36.990281 2.545777 0.000000 0.000000 0.000000 0.000000 0.000000 0.000000 30.870001 11.911465 4.862511 33.589506 10.800116 -0.214199 -0.439278 41.086420 1.166423 0.000000 0.000000 0.000000 0.000000 0.000000 0.000000 
15.205116 67.209930 16.647949 -0.397884 -48.358384 0.375422 13.634920 -0.218128 1.995934 -12.846145 2.687572 15.731063 11.259656 22.742739 0.538869 0.000000 0.000000 0.000000 -8.970491 0.723372 -23.818351 6.718933 -1.150371 21.567904 -0.561608 -5.263297 9.454391 0.000000 0.000000 0.000000 7.334052 -1.739886 15.873276 4.911537 -2.496337 1.639570 -10.693949 -1.457817 5.926624 14.021104 -9.152914 -7.650784 0.000000 0.000000 0.000000 -28.110676 -20.169850 10.129948 -35.049956 -11.783614 -0.678942 -1.593962 -38.912046 2.021640 0.000000 0.000000 0.000000 0.000000 0.000000 0.000000 29.740420 13.321680 5.795634 31.061089 14.968994 0.705824 -0.734087 39.336134 1.012786 0.000000 0.000000 0.000000 0.000000 0.000000 0.000000 
14.277620 67.533478 16.071291 0.707833 -48.667220 0.618889 14.324975 -0.197924 0.802205 -13.466487 2.866020 15.971223 12.363816 24.603235 2.640693 0.000000 0.000000 0.000000 -9.006750 0.725582 -24.229378 6.616817 -1.111999 21.198671 -1.062304 -6.005613 8.615291 0.000000 0.000000 0.000000 8.156073 -1.872629 15.959763 4.523886 -2.240237 0.838063 -10.121750 -1.874918 6.832187 12.926801 -8.594721 -6.773301 0.000000 0.000000 0.000000 -28.483639 -21.722293 11.239531 -35.692174 -16.435461 0.603528 3.877885 -39.852662 0.112694 0.000000 0.000000 0.000000 0.000000 0.000000 0.000000 27.821771 14.506836 6.492888 28.114585 19.321495 1.443103 -2.335081 38.334218 0.459608 0.000000 0.000000 0.000000 0.000000 0.000000 0.000000 
13.678285 67.970657 15.555233 2.543585 -47.974543 -0.134816 14.184487 -0.143252 -0.790983 -13.989722 3.002951 16.005450 12.038431 23.872926 4.746190 0.000000 0.000000 0.000000 -9.489100 0.637344 -24.443980 6.099450 -0.952883 20.912895 -1.427871 -6.878929 9.031777 0.000000 0.000000 0.000000 8.793348 -1.987134 16.114564 4.409577 -2.193480 0.960486 -10.809652 -3.146465 6.839870 11.072347 -7.605658 -5.263182 0.000000 0.000000 0.000000 -28.368545 -24.110323 12.865010 -34.362572 -19.704336 1.423108 7.038104 -41.757055 -1.074993 0.000000 0.000000 0.000000 0.000000 0.000000 0.000000 27.512407 16.434635 7.751312 23.748189 22.249653 1.532680 -4.879245 37.340561 -0.361818 0.000000 0.000000 0.000000 0.000000 0.000000 0.000000 
